<?xml version="1.0" encoding="utf-8"?>
<svg xmlns="http://www.w3.org/2000/svg" fill="#000000" height="48" width="48" viewBox="0 0 48 48">
  <g>
    <path id="path1" transform="rotate(0,24,24) translate(5.09999942779541,0) scale(1.5,1.5)  " d="M5.9999971,18L5.9999971,26.599976 10.800013,26.599976C13.200006,26.599976 14.599999,26.599976 15.200005,26.400024 16.200005,26.200012 16.999992,25.799988 17.599998,25.200012 18.200005,24.599976 18.599996,23.599976 18.599996,22.400024 18.599996,21.400024 18.399984,20.599976 17.999992,20 17.599998,19.400024 16.800011,18.799988 15.999992,18.599976 14.800012,18.200012 12.999994,18 9.9999952,18z M5.9999971,5.2000122L5.9999971,5.4000244 5.9999971,12.799988 11.800013,12.799988C14.399987,12.799988 13.200006,12.799988 13.800012,12.599976 14.999993,12.400024 15.800011,12 16.399986,11.400024 16.999992,10.799988 17.399986,10 17.399986,9 17.399986,8 17.200005,7.2000122 16.599998,6.5999756 15.999992,6 14.999993,5.5999756 13.999993,5.4000244 13.399987,5.4000244 14.200005,5.2000122 11.200007,5.2000122z M0,0L11.200007,0C13.800012,0 15.599998,0.20001221 16.800011,0.40002441 17.999992,0.59997559 19.200003,1 20.200003,1.7999878 21.200003,2.4000244 21.99999,3.4000244 22.599995,4.4000244 23.200001,5.5999756 23.599995,6.7999878 23.599995,8.2000122 23.599995,9.5999756 23.200001,11 22.399982,12.400024 21.599996,13.599976 20.399984,14.599976 19.200003,15.200012 21.200003,15.799988 22.599995,16.799988 23.599995,18.200012 24.599995,19.599976 25.200001,21.200012 25.200001,23 25.200001,24.400024 24.800007,25.799988 24.200001,27.200012 23.599995,28.599976 22.599995,29.599976 21.399984,30.400024 20.200003,31.200012 18.800009,31.799988 16.999992,32 15.999992,31.799988 15.999992,32 11.999994,32L0,32z" />
  </g>
</svg>

