<?xml version="1.0" encoding="utf-8"?>
<svg xmlns="http://www.w3.org/2000/svg" fill="#000000" height="48" width="48" viewBox="0 0 48 48">
  <g>
    <path id="path1" transform="rotate(0,24,24) translate(6,0) scale(1.5,1.5)  "  d="M6,26.010004L11,26.010004C11.552,26.010004 12,26.458004 12,27.010004 12,27.562004 11.552,28.010004 11,28.010004L6,28.010004C5.448,28.010004 5,27.562004 5,27.010004 5,26.458004 5.448,26.010004 6,26.010004z M6,21.010004L18,21.010004C18.552,21.010004 19,21.458004 19,22.010004 19,22.562004 18.552,23.010004 18,23.010004L6,23.010004C5.448,23.010004 5,22.562004 5,22.010004 5,21.458004 5.448,21.010004 6,21.010004z M6,16.010004L14,16.010004C14.552,16.010004 15,16.458004 15,17.010004 15,17.562004 14.552,18.010004 14,18.010004L6,18.010004C5.448,18.010004 5,17.562004 5,17.010004 5,16.458004 5.448,16.010004 6,16.010004z M6,11.010004L18,11.010004C18.552,11.010004 19,11.458004 19,12.010004 19,12.562004 18.552,13.010004 18,13.010004L6,13.010004C5.448,13.010004 5,12.562004 5,12.010004 5,11.458004 5.448,11.010004 6,11.010004z M22.000179,7.009995L2,7.010004 2,30 22.001007,30z M2,2L2,5.010004 22,5.010004 22,2z M2,0L22,0C23.102997,0,24,0.89700317,24,2L24,30C24,31.102997,23.102997,32,22,32L2,32C0.89700317,32,0,31.102997,0,30L0,2C0,0.89700317,0.89700317,0,2,0z" />
  </g>
</svg>

