<?xml version="1.0" encoding="utf-8"?>
<svg xmlns="http://www.w3.org/2000/svg" fill="#000000" height="48" width="48" viewBox="0 0 48 48">
  <g>
    <path id="path1" transform="rotate(0,24,24) translate(2.09999942779541,0) scale(1.5,1.5)  " d="M17.399956,26.300003L17.399956,30.300003 24.399954,30.300003 24.399954,26.300003z M9.2000084,19.200005L19.999992,19.200005C25.099966,19.200005,29.200001,23.300003,29.200001,28.400002L29.200001,32 0,32 0,28.400002C3.6379788E-12,23.300003,4.0999737,19.200005,9.2000084,19.200005z M14.59997,0C19.099968,0 22.799978,3.7000046 22.799978,8.2000046 22.799978,12.700005 19.099968,16.400002 14.59997,16.400002 10.099972,16.400002 6.3999605,12.700005 6.3999605,8.2000046 6.4999971,3.7000046 10.099972,0 14.59997,0z" />
  </g>
</svg>

