<?xml version="1.0" encoding="utf-8"?>
<svg xmlns="http://www.w3.org/2000/svg" fill="#000000"  height="48" width="48" viewBox="0 0 48 48">
  <g>
    <path id="path1" transform="rotate(0,24,24) translate(0,0) scale(1.5,1.5)  " d="M13.99999,18.000015L27.99999,18.000015 27.99999,20.000015 13.99999,20.000015z M13.99999,14.000014L27.99999,14.000014 27.99999,16.000015 13.99999,16.000015z M13.99999,10.000014L27.99999,10.000014 27.99999,12.000014 13.99999,12.000014z M11.99999,7.0000148L11.99999,30 30,30 30,7.0000148z M2,7.0000148L2,30 9.9999895,30 9.9999895,7.0000148z M2,2L2,5.0000148 30,5.0000148 30,2z M1,0L31,0C31.552002,0,32,0.44702148,32,1L32,31C32,31.552002,31.552002,32,31,32L1,32C0.44696045,32,0,31.552002,0,31L0,1C0,0.44702148,0.44696045,0,1,0z" />
  </g>
</svg>

