<?xml version="1.0" encoding="utf-8"?>
<svg xmlns="http://www.w3.org/2000/svg" fill="#000000" height="48" width="48" viewBox="0 0 48 48">
  <g>
    <path id="path1" transform="rotate(0,24,24) translate(1.37251163229554,0) scale(1.50000026822095,1.50000026822095)  " d="M15.010976,20.103992C14.432632,20.207648,13.323112,23.741437,13.225239,29.896216L13.224163,29.999995 16.802793,29.999995 16.801713,29.89586C16.703835,23.737563,15.594163,20.20571,15.010976,20.103992z M14.044106,18.329957L14.057621,18.354527C14.332907,18.821126 14.674242,19.103993 15.013995,19.103993 15.325998,19.103993 15.635751,18.871243 15.895504,18.47837L15.986252,18.330556 15.848593,18.349479C15.647306,18.373403,15.43945,18.386889,15.224882,18.388999L15.219877,18.388999 14.81186,18.388999C14.596705,18.386889,14.388296,18.373403,14.18649,18.349479z M11.782382,17.429273L11.755657,17.436917C9.7430254,18.017959,1.9703655,20.569242,2.0001149,25.274993L2.0001149,29.999995 12.224342,29.999995 12.225131,29.936954C12.283361,26.432225,12.709044,21.601966,13.935868,19.810052L13.976897,19.753041 13.890255,19.690032C13.455015,19.345277,13.090075,18.79831,12.836678,18.099059L12.800899,17.990806 12.710142,17.953248C12.430771,17.83174,12.168672,17.688203,11.923174,17.526992z M18.288078,17.400939L18.106798,17.526992C17.861764,17.688203,17.600194,17.83174,17.321429,17.953248L17.22414,17.993596 17.216056,18.019097C16.965137,18.738076,16.594372,19.307878,16.152259,19.668836L16.046179,19.748427 16.090547,19.810052C17.317866,21.601966,17.743587,26.432225,17.80182,29.936954L17.80261,29.999995 28.169865,29.999995 28.169865,25.281993C28.200146,20.485976,20.146872,17.927611,18.312091,17.407683z M15.020843,1.9999993C14.914886,1.9999993 12.732893,2.0190115 11.366873,3.6249986 10.327878,4.8469982 10.002867,6.7140017 10.403866,9.1749992L10.522884,9.9080009 9.8548579,10.234005C9.8558958,10.234005 9.8558958,10.234005 9.8568721,10.234005 9.8648679,10.234005 9.8218994,10.275997 9.8109131,10.355006 9.7988892,10.441005 9.7849122,10.917003 10.64886,11.895L10.83288,12.103007 10.882867,12.376002C10.913873,12.534999,11.679859,16.357995,14.821869,16.389001L15.210844,16.389001C18.372813,16.353997,19.136846,12.415004,19.143804,12.376002L19.194829,12.103007 19.377812,11.895C20.06781,11.114009 20.258849,10.568004 20.213805,10.338008 20.204834,10.294002 20.171813,10.234005 20.171813,10.234005L19.503849,9.9080009 19.623843,9.1749992C20.023804,6.7140017 19.699831,4.8469982 18.660836,3.6249986 17.29384,2.0190115 15.11386,1.9999993 15.020843,1.9999993z M15.006866,0C15.34683,0 18.258861,0.066009492 20.183837,2.3290093 21.532828,3.9139998 22.034839,6.1350074 21.678823,8.9360008 21.902821,9.1950035 22.092823,9.534008 22.174792,9.9480095 22.358812,10.867 21.980823,11.898005 21.05285,13.012995 20.880709,13.759247 20.53308,14.696748 19.972674,15.57902L19.841391,15.77816 19.86886,15.786963C23.029192,16.811469,30.205706,19.748914,30.169846,25.287993L30.169846,31.999995 0.00013399124,31.999995 0.00013399124,25.281993C-0.035021782,19.85621,6.8621292,16.927377,10.110672,15.849377L10.211963,15.816154 10.199258,15.798293C9.5527798,14.854326 9.1603433,13.821434 8.973882,13.012995 8.0459089,11.898005 7.668897,10.867 7.8518795,9.9480095 7.9339101,9.534008 8.1248879,9.1950035 8.3479093,8.9360008 7.9928697,6.1350074 8.4948809,3.9150069 9.842895,2.3290093 11.768848,0.066009492 14.680879,0 15.006866,0z" />
  </g>
</svg>

