<?xml version="1.0" encoding="utf-8"?>
<svg xmlns="http://www.w3.org/2000/svg" fill="#000000" height="48" width="48" viewBox="0 0 48 48">
  <g>
    <path id="path1" transform="rotate(0,24,24) translate(3.74936992949863,0) scale(1.50004667188899,1.50004667188899)  " d="M20.012992,22.647991L16.818162,25.408012 19.172508,29.999004 23.78326,29.999004z M10.754007,17.964017L7,21.20803 7,29.999004 16.925815,29.999004z M20.829003,10.145019C21.657003,10.145019 22.329004,10.817019 22.329004,11.645019 22.329004,12.473019 21.657003,13.145019 20.829003,13.145019 20.001003,13.145019 19.329003,12.473019 19.329003,11.645019 19.329003,10.817019 20.001003,10.145019 20.829003,10.145019z M7,7.9990044L7,18.563586 11.371006,14.786019 15.878756,23.576164 20.629992,19.46999 25,27.990654 25,7.9990044z M4.9999998,5.9990042L27,5.9990042 27,31.999004 4.9999998,31.999004z M0,0L21,0 21,1.9999998 2.0000002,1.9999998 2.0000002,25 0,25z" />
  </g>
</svg>

