<?xml version="1.0" encoding="utf-8"?>
<svg xmlns="http://www.w3.org/2000/svg" fill="#000000" height="48" width="48" viewBox="0 0 48 48">
  <g>
    <path id="path1" transform="rotate(0,24,24) translate(0,0.0134865979256169) scale(1.49901663201738,1.49901663201738)  " d="M14.612997,15.999022C12.075996,15.999022 10.010997,18.183022 10.010997,20.867022 10.010997,21.491022 10.475997,21.999022 11.046997,21.999022L20.975996,21.999022C21.546997,21.999022 22.010996,21.491022 22.010996,20.867022 22.010996,19.498022 21.488996,18.230021 20.538997,17.299021 19.685997,16.461022 18.574997,15.999022 17.409996,15.999022L16.010999,15.999022z M16.010999,7.9990219C14.456998,7.9990219 13.192996,9.3450216 13.192996,10.999022 13.192996,12.340021 14.038997,13.528022 15.250998,13.890022 15.741999,14.034022 16.281999,14.035022 16.772001,13.889021 17.984003,13.527022 18.829004,12.340021 18.829004,10.999022 18.829004,9.3450216 17.565002,7.9990219 16.010999,7.9990219z M16.010999,5.9990219C18.668003,5.9990219 20.829006,8.2420219 20.829006,10.999022 20.829006,12.246646 20.375595,13.417701 19.613472,14.312494L19.561086,14.37161 19.849121,14.482521C20.616747,14.799772 21.326496,15.268022 21.940996,15.872022 23.275997,17.183022 24.010996,18.957022 24.010996,20.867022 24.010996,22.594021 22.649996,23.999022 20.975996,23.999022L11.046997,23.999022C9.3729961,23.999022 8.0109966,22.594021 8.0109966,20.867022 8.0109966,17.908429 9.8188579,15.380742 12.345485,14.416453L12.463561,14.374805 12.4093,14.313588C11.64672,13.41851 11.192993,12.247209 11.192993,10.999022 11.192993,8.2420219 13.353996,5.9990219 16.010999,5.9990219z M16.010362,2.5520028C14.284341,3.7850047 9.2162645,6.9210223 2.0701719,7.1250018 1.9331765,9.385012 1.8751619,15.609013 3.5861991,20.229985 3.7361946,20.638007 3.9511938,21.062994 4.2412064,21.530035 5.7192233,23.918036 9.2042701,28.158026 16.010362,29.939034 22.817446,28.158026 26.3015,23.918036 27.779518,21.531012 28.070522,21.062994 28.285522,20.638007 28.435533,20.231022 30.146555,15.609013 30.088554,9.385012 29.951544,7.1250018 22.807451,6.9230059 17.738382,3.7860118 16.010362,2.5520028z M16.009355,0L16.650369,0.52902237C16.706371,0.5750126 22.307443,5.1360181 30.688553,5.1360181 30.743562,5.1360181 30.798555,5.135011 30.852558,5.135011L31.379572,5.1310132 31.681562,5.5639971C32.091572,6.154024 32.549587,14.879002 30.310558,20.926031 30.113548,21.45899 29.841541,22.00202 29.479538,22.585028 27.825523,25.257025 23.905473,30.027047 16.25437,31.941048L16.010362,32.002999 15.767362,31.941048C8.1162584,30.027047 4.196192,25.257025 2.5411709,22.58399 2.1791668,22.00202 1.908167,21.45899 1.7111733,20.924994 -0.52886221,14.879002 -0.070863484,6.154024 0.34015303,5.5639971L0.64115163,5.1320203 1.1691586,5.135011C1.2231603,5.135011 1.2781537,5.1360181 1.3331622,5.1360181 9.7152794,5.1360181 15.315346,0.5750126 15.371346,0.52902237z" />
  </g>
</svg>

