<?xml version="1.0" encoding="utf-8"?>
<svg xmlns="http://www.w3.org/2000/svg" fill="#000000" height="48" width="48" viewBox="0 0 48 48">
  <g>
    <path id="path1" transform="rotate(0,24,24) translate(0.673503318607413,0) scale(1.49999982118609,1.49999982118609)  " d="M15.232187,2C12.536184,2.414999 10.735183,3.3369999 9.8801823,4.743 8.931181,6.3009996 9.4731818,8.0109997 9.4781819,8.0270004 9.5051823,8.1070004 9.5221816,8.1899996 9.5291815,8.2740002 9.6051818,9.2849998 9.7531825,9.6899996 9.8111821,9.8140001 9.9961825,9.974 10.119183,10.199 10.149182,10.449 10.195183,10.828 10.022183,11.199 9.7031823,11.408 9.6391822,11.578 9.9431821,12.043 10.278183,12.27 10.345182,12.315 10.407183,12.368 10.461183,12.428 10.568183,12.547 10.895184,12.908 11.057183,14.315 11.711184,18.011 15.103188,18.38 15.247188,18.394L15.886188,18.391C16.271189,18.344 19.415192,17.856 20.051191,14.256 20.204191,12.908 20.530191,12.547 20.637192,12.428 20.670193,12.392 20.705193,12.359 20.742193,12.328 20.970192,12.14 21.311194,11.664 21.315193,11.391 21.094193,11.192 20.952192,10.869 20.963192,10.572001 20.974194,10.274 21.096193,9.96 21.331194,9.7790003 21.326193,9.7790003 21.701193,9.4049997 21.576193,8.4849997 21.555193,8.3310003 21.570192,8.1739998 21.621193,8.0270004 21.624193,8.0159998 22.172194,6.2860003 21.206192,4.7220001 20.345192,3.3290005 18.549191,2.4130001 15.867188,2z M15.157188,0L15.942188,0C15.991188,0 16.041187,0.0039997101 16.090189,0.01099968 19.441191,0.51300049 21.741194,1.7539997 22.927195,3.7030001 24.132196,5.6820002 23.760195,7.7419996 23.582195,8.434 23.673195,9.4169998 23.438194,10.132 23.169195,10.61 23.271195,10.864 23.321196,11.139 23.315195,11.43 23.296194,12.401 22.639195,13.278 22.183193,13.719 22.127194,13.904 22.060194,14.279 22.029194,14.544 21.579725,17.09475 20.16324,18.624195 18.721054,19.476874L18.642242,19.521526 18.918047,19.553638C26.362166,20.483515 30.844812,24.600491 31.101189,30.959993 31.123194,31.511995 30.694204,31.976992 30.142199,31.998995 30.128191,32.000002 30.114183,32.000002 30.101183,32.000002 29.567183,32.000002 29.124186,31.578997 29.102182,31.039995 28.750191,22.295994 19.507113,21.353001 15.550083,21.353001 11.602058,21.353001 2.3789993,22.291996 1.9989917,31.000002 1.9749742,31.552996 1.4869947,31.969988 0.95598525,31.955996 0.40498618,31.931993 -0.023025914,31.464998 0.00096094546,30.913988 0.2765902,24.578999 4.7616683,20.47886 12.190003,19.55281L12.466403,19.520692 12.396011,19.481525C10.937103,18.634097 9.5229006,17.119125 9.0781813,14.604 9.0391818,14.275 8.9761811,13.935 8.9241811,13.75 8.3811808,13.302 7.6381803,12.429 7.6451803,11.411 7.6471801,11.064 7.7381802,10.739 7.9091802,10.45 7.68818,9.8669996 7.5941802,9.151 7.5431801,8.5349998 7.3841797,7.9680004 6.9011794,5.7910004 8.1721802,3.7030001 9.3571816,1.7539997 11.658184,0.51300049 15.009187,0.01099968 15.058188,0.0039997101 15.107187,0 15.157188,0z" />
  </g>
</svg>

