<?xml version="1.0" encoding="utf-8"?>
<svg xmlns="http://www.w3.org/2000/svg" fill="#000000" height="48" width="48" viewBox="0 0 48 48">
  <g>
    <path id="path1" transform="rotate(0,24,24) translate(1.28746032714844E-05,0) scale(1.5,1.5)" d="M19.999996,22.999971L27.999996,22.999971C28.551998,22.999971 28.999996,23.44803 28.999996,23.999971 28.999996,24.551973 28.551998,24.999971 27.999996,24.999971L19.999996,24.999971C19.447994,24.999971 18.999996,24.551973 18.999996,23.999971 18.999996,23.44803 19.447994,22.999971 19.999996,22.999971z M5.999999,20L12.999999,20C13.551999,20 13.999999,20.448 13.999999,21 13.999999,21.552 13.551999,22 12.999999,22L5.999999,22C5.447999,22 4.999999,21.552 4.999999,21 4.999999,20.448 5.447999,20 5.999999,20z M23.985978,18C20.669976,18 17.970975,20.691 17.970975,24 17.970975,27.309 20.669976,30 23.985978,30 27.30198,30 29.999981,27.309 29.999981,24 29.999981,20.691 27.30198,18 23.985978,18z M5.999999,16L14.999999,16C15.551999,16 15.999999,16.448 15.999999,17 15.999999,17.552 15.551999,18 14.999999,18L5.999999,18C5.447999,18 4.999999,17.552 4.999999,17 4.999999,16.448 5.447999,16 5.999999,16z M5.999999,12L17.999999,12C18.551999,12 18.999999,12.448 18.999999,13 18.999999,13.552 18.551999,14 17.999999,14L5.999999,14C5.447999,14 4.999999,13.552 4.999999,13 4.999999,12.448 5.447999,12 5.999999,12z M16.999999,3.4139996L16.999999,7.031991 20.61799,7.031991z M2,2L2,30 18.6933,30 18.599872,29.919197C16.985861,28.454698 15.970974,26.343344 15.970974,24 15.970974,20.278219 18.531018,17.141631 21.985427,16.252311L21.999999,16.248945 21.999999,9.0319891 14.999999,9.0319891 14.999999,2z M2,0L16.413999,0 23.999999,7.5860004 23.999999,16.000178 24.192505,16.002618C28.516447,16.112357 31.999982,19.657922 31.999982,24 31.999982,28.342078 28.516447,31.887643 24.192505,31.997381L23.999999,31.999823 23.985978,32 2,32C0.89699936,32,0,31.103001,0,30L0,2C0,0.89699936,0.89699936,0,2,0z" />
  </g>
</svg>

