<?xml version="1.0" encoding="utf-8"?>
<svg xmlns="http://www.w3.org/2000/svg" fill="#000000" height="48" width="48" viewBox="0 0 48 48">
  <g>
    <path id="path1" transform="rotate(0,24,24) translate(0,0.000766729654841924) scale(1.49995207939657,1.49995207939657)" d="M24.000001,26L26.000001,26C26.553,26 27.000001,26.448 27.000001,27 27.000001,27.552 26.553,28 26.000001,28L24.000001,28C23.447,28 23.000001,27.552 23.000001,27 23.000001,26.448 23.447,26 24.000001,26z M20.001023,24L20.001023,30 30.001023,30 30.001023,24z M5.9999973,19.999971L12.999997,19.999971C13.552976,19.999971 13.999997,20.44803 13.999997,20.999971 13.999997,21.551973 13.552976,21.999971 12.999997,21.999971L5.9999973,21.999971C5.4470186,21.999971 4.9999971,21.551973 4.9999973,20.999971 4.9999971,20.44803 5.4470186,19.999971 5.9999973,19.999971z M23.456023,17L20.001023,20.474 20.001023,22 30.001023,22 30.001023,17z M6.0000001,16L15,16C15.553,16 16,16.448 16,17 16,17.552 15.553,18 15,18L6.0000001,18C5.4470001,18 5.0000001,17.552 5.0000001,17 5.0000001,16.448 5.4470001,16 6.0000001,16z M22.624024,15L32.001023,15 32.001023,32 18.001023,32 18.001023,19.649z M6.0000001,12L18,12C18.553,12 19,12.448 19,13 19,13.552 18.553,14 18,14L6.0000001,14C5.4470001,14 5.0000001,13.552 5.0000001,13 5.0000001,12.448 5.4470001,12 6.0000001,12z M17,3.4139996L17,7.031991 20.617991,7.031991z M2,0L16.414001,0 24.000001,7.5860004 24.000001,13 22.000001,13 22.000001,9.0319891 15,9.0319891 15,2 2,2 2,30 16,30 16,32 2,32C0.89699984,32,0,31.103001,0,30L0,2C0,0.89699936,0.89699984,0,2,0z" />
  </g>
</svg>

