<?xml version="1.0" encoding="utf-8"?>
<svg xmlns="http://www.w3.org/2000/svg" fill="#000000" height="48" width="48" viewBox="0 0 48 48">
  <g>
    <path id="path1" transform="rotate(0,24,24) translate(0,1.28928192386283) scale(1.49999731779578,1.49999731779578)  " d="M25.649981,24.884991C24.712985,24.884991 23.949987,25.645994 23.949987,26.581997 23.949987,27.518001 24.712985,28.280004 25.649981,28.280004 26.586979,28.280004 27.349977,27.518001 27.349977,26.581997 27.349977,25.645994 26.586979,24.884991 25.649981,24.884991z M10.934958,24.884991C9.997961,24.884991 9.2349634,25.645994 9.2349634,26.581997 9.2349634,27.518001 9.997961,28.280004 10.934958,28.280004 11.871955,28.280004 12.634952,27.518001 12.634952,26.581997 12.634952,25.645994 11.871955,24.884991 10.934958,24.884991z M8.2406497,8.0029631L10.786421,19.00596 26.71104,19.00596 29.442048,8.0029631z M0,0L6.388998,0 7.7776771,6.0019646 32.000056,6.0019646 28.276044,21.006959 11.249394,21.006959 11.702466,22.965166 11.859825,23.000428 12.00392,23.041327 12.00392,23.007965 24.698562,23.007965 24.725115,23.000428C25.020706,22.924414 25.330607,22.883984 25.649981,22.883984 27.693974,22.883984 29.349969,24.53999 29.349969,26.581997 29.349969,28.625005 27.693974,30.281011 25.649981,30.281011 23.605989,30.281011 21.949994,28.625005 21.949994,26.581997 21.949994,26.071496 22.053493,25.585119 22.240681,25.142711L22.301167,25.008965 14.283773,25.008965 14.344259,25.142711C14.531446,25.585119 14.634946,26.071496 14.634946,26.581997 14.634946,28.625005 12.978951,30.281011 10.934958,30.281011 8.8909645,30.281011 7.2349701,28.625005 7.2349701,26.581997 7.2349701,24.986679 8.2457089,23.626957 9.6625593,23.108417L9.6807964,23.10225 4.7979984,2.0009975 0,2.0009975z" />
  </g>
</svg>

