<?xml version="1.0" encoding="utf-8"?>
<svg xmlns="http://www.w3.org/2000/svg" fill="#000000" height="48" width="48" viewBox="0 0 48 48">
  <g>
    <path id="path1" transform="rotate(0,24,24) translate(0,4.50599240685234) scale(1.49999856948989,1.49999856948989)  " d="M19.768469,2.135042L19.724113,2.1894446C19.39543,2.5853863,18.911076,3.0880633,18.298433,3.4981123L18.152088,3.5921422 18.127745,3.6086879C17.496756,4.0119439,16.839285,4.2280279,16.154203,4.2513147L16.038622,4.2511736 15.849276,4.2516552C15.258828,4.2319456,14.680143,4.0639291,14.119263,3.7518795L14.085496,3.7317634 14.047308,3.7113717C13.269212,3.2743657,12.663344,2.6573642,12.274896,2.1894341L12.230551,2.1350451 12.182913,2.1468812C11.700224,2.2670506 10.880333,2.4746464 9.4899902,2.8290122 7.9910278,3.2120081 6.7120361,4.0359827 5.8900146,5.1479817 5.776001,5.3020344 5.6660156,5.4640217 5.5629883,5.6340047L2.8209836,9.7080393 5.3720093,11.277986 7.6950073,7.79001 9.1300049,8.2060261 9.1359863,8.9629832 9.1160278,23.993011 14.250998,23.993011 22.883013,23.992995 22.862013,8.2159987 24.303017,7.7829986 26.62702,11.277998 29.178024,9.7079983C28.249023,8.3279982 26.52702,5.7719989 26.46302,5.6769992 26.32202,5.4569989 26.187019,5.2679992 26.049019,5.0919991 25.199017,3.9989992 23.934015,3.1929994 22.488012,2.8239992 21.107073,2.4714995 20.293907,2.2657767 19.815332,2.1466814z M18.800007,4.0017767E-11L19.319008,4.0017767E-11C19.488008,-7.1670001E-08 19.510008,-7.1670001E-08 22.983013,0.88699997 24.856016,1.3649997 26.50602,2.4229994 27.627022,3.8639992 27.800022,4.0849991 27.969023,4.3229991 28.132023,4.5759993 28.207022,4.685999 31.418028,9.4549981 31.418028,9.4549981L32.000031,10.318998 26.034019,13.991998 24.866016,12.240998 24.885017,25.991996 23.862,25.991996 7.1140137,25.992034 7.1329956,12.240998 5.967041,13.992036 0,10.319001 3.8790283,4.5589929C3.9890137,4.3739954 4.1329956,4.1600061 4.28302,3.9590173 5.3770142,2.4779995 7.0510254,1.3890104 8.9949951,0.89200104 12.48999,3.3561919E-05 12.507996,3.3561919E-05 12.679993,3.3378674E-05L13.199036,3.3378674E-05 13.497986,0.42502109C13.986259,1.1208335,14.466925,1.6211125,14.942305,1.9206881L15.002472,1.9558216 15.137641,2.0299841C15.366549,2.1441305,15.607816,2.2233334,15.854814,2.2465423L15.935007,2.2514189 16.001247,2.2524031 16.068365,2.2514082 16.149887,2.2462094C16.469501,2.2150772,16.77993,2.0894771,17.066158,1.9162177L17.21372,1.8199409 17.225004,1.8122495C17.645504,1.5059996,18.068005,1.0419998,18.501005,0.42499963z" />
  </g>
</svg>

