<?xml version="1.0" encoding="utf-8"?>
<svg xmlns="http://www.w3.org/2000/svg" fill="#000000" height="48" width="48" viewBox="0 0 48 48">
  <g>
    <path id="path1" transform="rotate(0,24,24) translate(0,7.5) scale(1.5,1.5)  " d="M25,16C23.896973,16 23,16.896973 23,18 23,19.103027 23.896973,20 25,20 26.103027,20 27,19.103027 27,18 27,16.896973 26.103027,16 25,16z M9,16C7.8970003,16 7,16.897 7,18 7,19.103 7.8970003,20 9,20 10.103,20 11,19.103 11,18 11,16.897 10.103,16 9,16z M10,10L15,10 15,12 10,12z M21,7L26,7 26,9 21,9z M7,7L15,7 15,9 7,9z M19,4L19,16 21.537939,16 21.579811,15.927251C22.282034,14.772614 23.552277,14 25,14 26.447723,14 27.717966,14.772614 28.420189,15.927251L28.462061,16 30,16 30,10.15 25.037,4z M4,4L15,4 15,6 4,6z M2,2L2,16 5.5379486,16 5.5798235,15.927248C6.2820587,14.772611 7.5523119,14 9,14 10.447688,14 11.717941,14.772611 12.420177,15.927248L12.462051,16 17,16 17,2z M0,0L19,0 19,2 25.994,2 32,9.4429998 32,18 29,18C29,20.205994 27.206055,22 25,22 22.793945,22 21,20.205994 21,18L19,18 13,18C13,20.206 11.206,22 9,22 6.7939997,22 5,20.206 5,18L0,18z" />
  </g>
</svg>

