<?xml version="1.0" encoding="utf-8"?>
<svg xmlns="http://www.w3.org/2000/svg" fill="#000000" height="48" width="48" viewBox="0 0 48 48">
  <g>
    <path id="path1" transform="rotate(0,24,24) translate(0.000763892945315092,0) scale(1.49999964237222,1.49999964237222)" d="M19.325332,27.5914L18.535009,29.666005 20.919932,29.146274z M6.000001,20L13,20C13.553,20 14,20.447999 14,21 14,21.551999 13.553,21.999999 13,22L6.000001,22C5.4470005,21.999999 5.000001,21.551999 5.000001,21 5.000001,20.447999 5.4470005,20 6.000001,20z M27.178996,19.348994L20.421921,25.866704 22.798539,28.184684 29.598992,21.685997z M27.179371,16.997992C27.455246,16.997742,27.730995,17.100992,27.944995,17.307992L31.968989,21.194996 31.998989,21.689997C31.998989,21.985997,31.875989,22.273997,31.66299,22.479997L23.054002,30.707006 22.741003,30.796007 17.33701,31.974008C17.25901,31.992008 17.18001,32.000008 17.10201,32.000008 16.782011,32.000008 16.475011,31.862008 16.263011,31.614007L15.875012,31.160007 16.074012,30.506006 18.011009,25.425001 18.194009,25.237 26.412997,17.308992C26.627497,17.101992,26.903496,16.998241,27.179371,16.997992z M6.000001,15.999999L15.000001,15.999999C15.553001,15.999999 16.000001,16.447999 16,16.999999 16.000001,17.552 15.553001,18 15.000001,18L6.000001,18C5.4470005,18 5.000001,17.552 5.000001,16.999999 5.000001,16.447999 5.4470005,15.999999 6.000001,15.999999z M6.000001,11.999999L18,11.999999C18.553001,11.999999 19.000001,12.447999 19.000001,12.999999 19.000001,13.551999 18.553001,13.999999 18,13.999999L6.000001,13.999999C5.4470005,13.999999 5.000001,13.551999 5.000001,12.999999 5.000001,12.447999 5.4470005,11.999999 6.000001,11.999999z M17.000001,3.4139996L17.000001,7.0309906 20.616992,7.0309906z M2,0L16.414001,0 24,7.5859985 24,18 22,18 22,9.0309887 15.000001,9.0309887 15.000001,2 2,2 2,30 14,30 14,32 2,32C0.89700127,32,0,31.102999,0,30L0,2C0,0.89699936,0.89700127,0,2,0z" />
  </g>
</svg>

