<?xml version="1.0" encoding="utf-8"?>
<svg xmlns="http://www.w3.org/2000/svg" fill="#000000" height="48" width="48" viewBox="0 0 48 48">
  <g>
    <path id="path1" transform="rotate(0,24,24) translate(0,3.43322262779111E-05) scale(1.49999785423586,1.49999785423586)" d="M6.000001,20.000001L13.000001,20.000001C13.552001,20.000001 14.000001,20.448001 14.000001,21.000001 14.000001,21.552001 13.552001,22 13.000001,22.000001L6.000001,22.000001C5.4480009,22 5.000001,21.552001 5.000001,21.000001 5.000001,20.448001 5.4480009,20.000001 6.000001,20.000001z M23.996692,19.423006L27.488809,22.214999C27.919861,22.560031 27.98981,23.188999 27.644823,23.621006 27.299835,24.052036 26.669799,24.121006 26.239724,23.777012L24.994972,22.781571 24.994972,27.577968C24.994972,28.129966 24.546972,28.577964 23.994972,28.577964 23.442972,28.577964 22.994972,28.129966 22.994972,27.577968L22.994972,22.773428 21.730467,23.779026C21.546498,23.925022 21.326516,23.996006 21.108488,23.996006 20.814467,23.996006 20.52246,23.867039 20.325429,23.618015 19.981418,23.186008 20.053443,22.55704 20.485471,22.213046z M23.98601,18C20.669996,18 17.970984,20.691001 17.970984,24 17.970984,27.309 20.669996,30.000001 23.98601,30.000001 27.302025,30.000001 30.000036,27.309 30.000036,24 30.000036,20.691001 27.302025,18 23.98601,18z M6.000001,16L15.000001,16C15.552001,16 16.000001,16.448 16.000001,17 16.000001,17.552001 15.552001,18 15.000001,18L6.000001,18C5.4480009,18 5.000001,17.552001 5.000001,17 5.000001,16.448 5.4480009,16 6.000001,16z M6.000001,12L18.000001,12C18.552001,12 19.000001,12.448 19,13 19.000001,13.552001 18.552001,14 18.000001,14L6.000001,14C5.4480009,14 5.000001,13.552001 5.000001,13 5.000001,12.448 5.4480009,12 6.000001,12z M17,3.4139996L17,7.031991 20.617992,7.031991z M2,2L2,30.000001 18.693313,30.000001 18.599883,29.919197C16.985867,28.454698 15.970975,26.343344 15.970975,24 15.970975,20.278219 18.53103,17.141631 21.985452,16.252311L22.000001,16.248951 22.000001,9.0319891 15.000001,9.0319891 15.000001,2z M2,0L16.414001,0 24.000001,7.5860004 24.000001,16.000178 24.192538,16.002619C28.516496,16.112357 32.000045,19.657922 32.000045,24 32.000045,28.342078 28.516496,31.887644 24.192538,31.997382L24.000001,31.999824 23.98601,32.000001 2,32.000001C0.89700127,32.000001,0,31.103001,0,30.000001L0,2C0,0.89700127,0.89700127,0,2,0z" />
  </g>
</svg>

